<svg xmlns="http://www.w3.org/2000/svg" width="17.094" height="17.16" viewBox="0 0 17.094 17.16">
  <defs>
    <style>
      .cls-1 {
        fill: #333;
        fill-rule: evenodd;
      }
    </style>
  </defs>
  <path id="シェイプ_527" data-name="シェイプ 527" class="cls-1" d="M645.678,5365.55a0.4,0.4,0,0,0,0-.06,0.472,0.472,0,0,0-.074-0.2h0c0-.01,0-0.01,0-0.01s-0.017-.01-0.024-0.02a0.475,0.475,0,0,0-.134-0.12l-0.061-.03a0.347,0.347,0,0,0-.141-0.03c-0.013,0-.024-0.01-0.037-0.01H629.073a0.483,0.483,0,0,0-.457.33,0.519,0.519,0,0,0,.15.56l7.178,6.06,3.127,9.86a0.483,0.483,0,0,0,.454.34h0.008a0.485,0.485,0,0,0,.457-0.33l5.669-16.15c0-.01,0-0.02,0-0.03A0.579,0.579,0,0,0,645.678,5365.55Zm-2.066.52-7.223,5.03-5.954-5.03h13.177Zm-4.056,14.11-2.619-8.25,7.3-5.08Z" transform="translate(-628.594 -5365.06)"/>
</svg>
