<svg xmlns="http://www.w3.org/2000/svg" width="17.031" height="17.16" viewBox="0 0 17.031 17.16">
  <defs>
    <style>
      .cls-1 {
        fill: #333;
        fill-rule: evenodd;
      }
    </style>
  </defs>
  <path id="シェイプ_527" data-name="シェイプ 527" class="cls-1" d="M618.949,5382.87a0.428,0.428,0,0,1-.156-0.03l-4-1.18a8.668,8.668,0,0,1-3.814.89,8.416,8.416,0,1,1,8.508-8.42,8.33,8.33,0,0,1-1.169,4.25l1.152,3.79a0.542,0.542,0,0,1-.136.54A0.562,0.562,0,0,1,618.949,5382.87Zm-4.211-2.33a0.823,0.823,0,0,1,.157.02l3.242,0.97-0.931-3.07a0.532,0.532,0,0,1,.06-0.44,7.275,7.275,0,0,0,1.133-3.89,7.42,7.42,0,1,0-7.42,7.34,7.484,7.484,0,0,0,3.5-.87A0.574,0.574,0,0,1,614.738,5380.54Z" transform="translate(-602.469 -5365.72)"/>
</svg>
