<svg xmlns="http://www.w3.org/2000/svg" width="20.094" height="17.5" viewBox="0 0 20.094 17.5">
  <defs>
    <style>
      .cls-1 {
        fill: #333;
        fill-rule: evenodd;
      }
    </style>
  </defs>
  <path id="シェイプ_525" data-name="シェイプ 525" class="cls-1" d="M582.436,5383.2a0.515,0.515,0,0,1-.386-0.16l-8.041-7.96a5.461,5.461,0,0,1,0-7.77,5.581,5.581,0,0,1,7.848,0l0.579,0.57,0.578-.57c0-.01.009-0.01,0.013-0.02a5.544,5.544,0,0,1,3.912-1.6h0a5.582,5.582,0,0,1,3.923,1.62h0a5.455,5.455,0,0,1,0,7.77l-8.04,7.96A0.517,0.517,0,0,1,582.436,5383.2Zm-4.5-16.42a4.463,4.463,0,0,0-3.152,1.29,4.392,4.392,0,0,0,0,6.25l7.655,7.58,7.654-7.58a4.4,4.4,0,0,0,0-6.25h0a4.458,4.458,0,0,0-3.15-1.29h0a4.421,4.421,0,0,0-3.152,1.29h0s0,0-.007.01l-0.958.95a0.572,0.572,0,0,1-.772,0l-0.965-.96A4.463,4.463,0,0,0,577.933,5366.78Z" transform="translate(-572.406 -5365.69)"/>
</svg>
