<?xml version="1.0" encoding="utf-8"?>
<!-- Generator: Adobe Illustrator 25.2.3, SVG Export Plug-In . SVG Version: 6.00 Build 0)  -->
<svg version="1.1" id="レイヤー_1" xmlns="http://www.w3.org/2000/svg" xmlns:xlink="http://www.w3.org/1999/xlink" x="0px"
	 y="0px" viewBox="0 0 28.2 29.1" style="enable-background:new 0 0 28.2 29.1;" xml:space="preserve">
<style type="text/css">
	.st0{fill:#FFFFFF;}
</style>
<path id="シェイプ_26" class="st0" d="M20.1,0h-12C3.6,0,0,3.7,0,8.2c0,0,0,0,0,0v12.7c0,4.5,3.6,8.2,8.1,8.2c0,0,0,0,0,0h12
	c4.5,0,8.1-3.7,8.1-8.2v0V8.2C28.2,3.7,24.6,0,20.1,0z M2.9,8.2c0-2.9,2.3-5.3,5.2-5.3h12c2.9,0,5.2,2.4,5.2,5.3v12.7
	c0,2.9-2.3,5.3-5.2,5.3h-12c-2.9,0-5.2-2.4-5.2-5.3V8.2L2.9,8.2z M14.1,22.1c4.1,0.1,7.6-3.2,7.6-7.4c0.1-4.1-3.2-7.6-7.4-7.6
	c-4.1-0.1-7.6,3.2-7.6,7.4c0,0,0,0.1,0,0.1C6.7,18.7,10,22,14.1,22.1z M14.1,9.4c2.9,0,5.2,2.2,5.3,5.1s-2.2,5.2-5.1,5.3
	c-2.9,0-5.2-2.2-5.3-5.1c0,0,0-0.1,0-0.1C9,11.7,11.3,9.4,14.1,9.4z M21.7,5.2c0.9,0,1.7,0.7,1.7,1.7s-0.7,1.7-1.7,1.7
	c-0.9,0-1.7-0.7-1.7-1.7c0,0,0,0,0,0C20,5.9,20.8,5.2,21.7,5.2C21.7,5.2,21.7,5.2,21.7,5.2L21.7,5.2z"/>
</svg>
