<svg xmlns="http://www.w3.org/2000/svg" width="30.376" height="24.68" viewBox="0 0 30.376 24.68">
  <defs>
    <style>
      .cls-1 {
        fill: #005baf;
        fill-rule: evenodd;
      }
    </style>
  </defs>
  <path id="シェイプ_25" data-name="シェイプ 25" class="cls-1" d="M913.762,6812.32h0a7.051,7.051,0,0,1-.157-1.42,6.25,6.25,0,0,1,10.814-4.27,12.284,12.284,0,0,0,3.3-1.16c0.22-.13.44-0.22,0.66-0.35a5.863,5.863,0,0,1-2.012,2.89,3.439,3.439,0,0,1-.723.5h0.031l-0.031.04a12.838,12.838,0,0,0,2.923-.73,3.149,3.149,0,0,0,.629-0.25,13.052,13.052,0,0,1-3.112,3.21,7.076,7.076,0,0,1,.031.81c0,8.24-6.287,17.76-17.761,17.76a17.659,17.659,0,0,1-9.556-2.8,12.209,12.209,0,0,0,7.387-1.38,0.479,0.479,0,0,1,.126-0.06c0.126-.07.22-0.13,0.314-0.19a16.218,16.218,0,0,0,1.415-.94H908.01l0.031-.04a6.241,6.241,0,0,1-5.47-3.42,8.917,8.917,0,0,1-.377-0.91,7.291,7.291,0,0,0,1.163.09,7.666,7.666,0,0,0,1.2-.12c0.157-.04.283-0.04,0.44-0.07h0a6.233,6.233,0,0,1-5-6.12v-0.07a6.6,6.6,0,0,0,2.169.73,4.975,4.975,0,0,0,.629.06l-0.031-.03h0.031a6.25,6.25,0,0,1-2.766-5.19,6.156,6.156,0,0,1,.66-2.73,2.646,2.646,0,0,1,.22-0.41,17.743,17.743,0,0,0,12.669,6.51,0.32,0.32,0,0,0,.188.06h0Z" transform="translate(-898.812 -6804.66)"/>
</svg>
